<?xml version="1.0" encoding="utf-8"?>
<!-- Generator: Adobe Illustrator 28.2.0, SVG Export Plug-In . SVG Version: 6.00 Build 0)  -->
<svg version="1.1" id="Calque_1" xmlns="http://www.w3.org/2000/svg" xmlns:xlink="http://www.w3.org/1999/xlink" x="0px" y="0px"
	 viewBox="0 0 597.3 841.9" style="enable-background:new 0 0 597.3 841.9;" xml:space="preserve">
<style type="text/css">
	.st0{clip-path:url(#SVGID_00000004520193882285171300000001751978635994238376_);}
	.st1{fill:url(#SVGID_00000126286395231756744100000012115280639730542748_);}
	.st2{fill:url(#SVGID_00000053534843338485316530000012481723198192941493_);}
	.st3{fill:url(#SVGID_00000053529578417977786820000018205084558535216540_);}
	.st4{fill:url(#SVGID_00000106130577957665435050000008016880920976964510_);}
	.st5{fill:url(#SVGID_00000116954614299687717320000010132132070339946936_);}
	.st6{fill:url(#SVGID_00000034090529309995731450000013153450535802362015_);}
</style>
<g>
	<g>
		<defs>
			<rect id="SVGID_1_" x="11" y="32.7" width="568" height="556.4"/>
		</defs>
		<clipPath id="SVGID_00000093160470607538022200000000316591024647114625_">
			<use xlink:href="#SVGID_1_"  style="overflow:visible;"/>
		</clipPath>
		<g style="clip-path:url(#SVGID_00000093160470607538022200000000316591024647114625_);">
			<g>
				
					<linearGradient id="SVGID_00000065044549128011427470000005450633316975805576_" gradientUnits="userSpaceOnUse" x1="47.9843" y1="315.2237" x2="462.97" y2="315.2237">
					<stop  offset="0" style="stop-color:#00003F;stop-opacity:0"/>
					<stop  offset="0.4472" style="stop-color:#00003F"/>
				</linearGradient>
				<path style="fill:url(#SVGID_00000065044549128011427470000005450633316975805576_);" d="M245.4,69.2c-3.5,3-6.9,6-10.4,9
					c-19.3,16.5-33.9,36.3-42.7,60.3c-0.6,1.5-2.1,2.9-3.5,3.9c-52.3,35.6-83.6,84.3-89.6,147.7c-4.8,51.3,8,98.2,39,139.6
					c29,38.8,68.1,62.5,114.2,75.2c55.9,15.5,109.9,9.3,161.9-15.7c2.5-1.2,5-2.6,7.5-4.1c2.3-1.3,4.5-2.8,5.8-3.5
					c11.7,10.6,23.1,21,35.3,32c-5.9,4.1-10.4,7.4-15.1,10.4c-30.2,18.8-63.2,29.6-98.3,34.4c-50.5,7-99.5,0.8-146.2-19.9
					C154.7,517.2,114.6,485,86,439.6c-31-49.3-43.3-103-36-160.8c6.4-51.1,27.6-95.4,62.2-133.4c26.9-29.5,59-51.5,95.5-66.9
					C219.5,73.4,231.6,68.6,245.4,69.2z"/>
				
					<linearGradient id="SVGID_00000015325303620427269030000006685972611131933083_" gradientUnits="userSpaceOnUse" x1="186.7299" y1="263.0211" x2="443.46" y2="263.0211">
					<stop  offset="0" style="stop-color:#00003F;stop-opacity:0"/>
					<stop  offset="3.309074e-02" style="stop-color:#00003F;stop-opacity:6.753784e-02"/>
					<stop  offset="0.49" style="stop-color:#00003F"/>
				</linearGradient>
				<path style="fill:url(#SVGID_00000015325303620427269030000006685972611131933083_);" d="M186.8,394.7c0-8.6,0-15.8,0-23.1
					c0-58.2,0-116.3-0.1-174.5c0-3.9,1.1-6.8,3.9-9.7c22.1-22.8,47.8-40,78.4-49c34.4-10.1,68.6-9.2,102.7,1.7
					c27.2,8.7,50.5,23.6,71.8,43.1c-3,2.9-5.7,5.9-8.8,8.6c-10.5,9-21.3,17.7-31.7,26.8c-2.9,2.5-4.6,2.1-7.5,0
					c-10.6-7.7-20.9-16.3-32.6-21.9c-28.4-13.8-57.7-12.5-87-2.1c-4.5,1.6-8.8,3.9-13.3,5.7c-3.9,1.5-4.8,4.2-4.8,8.1
					c0.2,35.5,0.2,71,0.3,106.5c0,7,0.1,14-0.3,21c-0.1,1.9-1.5,4.6-3.1,5.4c-24.4,13.5-45.8,30.9-64.7,51.4
					C189.5,393.1,188.9,393.4,186.8,394.7z"/>
				
					<linearGradient id="SVGID_00000089563923439838241650000001658883444470294707_" gradientUnits="userSpaceOnUse" x1="265.09" y1="329.445" x2="502.5185" y2="329.445">
					<stop  offset="0" style="stop-color:#00003F;stop-opacity:0"/>
					<stop  offset="0.8911" style="stop-color:#00003F"/>
				</linearGradient>
				<path style="fill:url(#SVGID_00000089563923439838241650000001658883444470294707_);" d="M494.9,227.2
					c20.8,66-0.7,155.2-68,204.4c-45-41.8-97.9-63.5-161.8-60.3c5.2-6.8,9.4-12.5,13.9-17.9c8.5-10.2,17.3-20.3,25.8-30.5
					c1.9-2.2,3.7-3,6.8-2.6c27.2,3.7,52.9,11.7,76.9,25.3c2.8,1.6,4.7,1.6,7.4-0.6c22-18.4,33.9-42.3,39.5-69.9
					c0.5-2.2,1.7-4.9,3.4-6.2c18-13.7,36.2-27.2,54.3-40.7C493.7,227.8,494.3,227.5,494.9,227.2z"/>
				
					<linearGradient id="SVGID_00000140714175829542213220000015302522359299999399_" gradientUnits="userSpaceOnUse" x1="230.75" y1="114.7455" x2="503.4991" y2="114.7455">
					<stop  offset="0" style="stop-color:#00003F;stop-opacity:0"/>
					<stop  offset="1" style="stop-color:#00003F"/>
				</linearGradient>
				<path style="fill:url(#SVGID_00000140714175829542213220000015302522359299999399_);" d="M230.8,118.6
					c9.4-10.7,18.3-21.9,28.2-32.1c9.1-9.4,19.1-18,29-26.7c1.4-1.3,3.9-1.8,6-1.9c18.3-1.4,36.5-0.8,54.7,1.8
					c27.1,3.9,52.8,11.9,77.6,23.5c26.2,12.3,49.1,29.2,69.9,49.1c10,9.6,9.9,9.8-0.2,19.3c-6.9,6.5-14.2,12.6-21,19.1
					c-2.5,2.4-3.9,2.2-6.5,0c-14.6-11.8-28.9-24.1-44.4-34.5c-20.5-13.7-43.8-21.5-68-26.2c-40.9-8-81-4.9-120.2,9.7
					c-1.1,0.4-2.4,0.5-3.7,0.7C231.6,119.8,231.2,119.2,230.8,118.6z"/>
				
					<linearGradient id="SVGID_00000090260101733180989910000011203878603382301826_" gradientUnits="userSpaceOnUse" x1="186.6172" y1="421.7" x2="400.18" y2="421.7">
					<stop  offset="0" style="stop-color:#00003F;stop-opacity:0"/>
					<stop  offset="1" style="stop-color:#00003F"/>
				</linearGradient>
				<path style="fill:url(#SVGID_00000090260101733180989910000011203878603382301826_);" d="M400.2,449.7c-8.2,3.2-15.8,6.5-23.6,9
					c-43,14.1-86.2,12.1-129.6,1.9c-3-0.7-6.2-1.2-9.3-1.2c-15-0.1-30,0-45,0c-1.8,0-3.6,0-6,0c0-8.5-0.1-16.5,0.1-24.4
					c0-1,0.9-2.1,1.7-2.9c20.9-20.8,43-40.3,67.3-57.1c0.2-0.2,0.6-0.2,1.8-0.5c0,11.3,0,22.5,0,34.2c3.8,0,6.8-0.1,9.7,0
					c19.6,0.6,39.4-0.1,58.8,2.3c27.9,3.5,51.4,17.5,72.1,36.1C398.7,447.7,399,448.2,400.2,449.7z"/>
				
					<linearGradient id="SVGID_00000042723704852287304770000009796470378259093408_" gradientUnits="userSpaceOnUse" x1="467.7496" y1="459.6592" x2="515.58" y2="459.6592">
					<stop  offset="6.123801e-03" style="stop-color:#00003F;stop-opacity:0"/>
					<stop  offset="0.7876" style="stop-color:#00003F"/>
				</linearGradient>
				<path style="fill:url(#SVGID_00000042723704852287304770000009796470378259093408_);" d="M515.6,459.3c0,13.1-10.9,24-23.8,24
					c-12.5,0-24.1-10.9-24-22.8c0.1-13.4,11.1-24.8,23.9-24.6C504.5,436.1,515.6,446.9,515.6,459.3z"/>
			</g>
		</g>
	</g>
</g>
</svg>
